<svg width="1200" height="360" viewBox="0 0 1200 360" fill="none" xmlns="http://www.w3.org/2000/svg">
  <defs>
    <linearGradient id="bg" x1="64" y1="40" x2="1100" y2="320" gradientUnits="userSpaceOnUse">
      <stop stop-color="#05070B"/>
      <stop offset="0.55" stop-color="#07131D"/>
      <stop offset="1" stop-color="#081B27"/>
    </linearGradient>
    <radialGradient id="glowLeft" cx="0" cy="0" r="1" gradientUnits="userSpaceOnUse" gradientTransform="translate(258 154) rotate(16) scale(360 220)">
      <stop stop-color="#1EC8FF" stop-opacity="0.28"/>
      <stop offset="1" stop-color="#1EC8FF" stop-opacity="0"/>
    </radialGradient>
    <radialGradient id="glowRight" cx="0" cy="0" r="1" gradientUnits="userSpaceOnUse" gradientTransform="translate(968 134) rotate(160) scale(312 196)">
      <stop stop-color="#5DF2FF" stop-opacity="0.22"/>
      <stop offset="1" stop-color="#5DF2FF" stop-opacity="0"/>
    </radialGradient>
    <linearGradient id="stroke" x1="169" y1="101" x2="1082" y2="272" gradientUnits="userSpaceOnUse">
      <stop stop-color="#7DEBFF"/>
      <stop offset="1" stop-color="#57A5FF"/>
    </linearGradient>
    <filter id="softBlur" x="-40%" y="-40%" width="180%" height="180%">
      <feGaussianBlur stdDeviation="18"/>
    </filter>
    <pattern id="grid" width="48" height="48" patternUnits="userSpaceOnUse">
      <path d="M48 0H0V48" stroke="#82DFFF" stroke-opacity="0.08"/>
    </pattern>
  </defs>

  <rect width="1200" height="360" rx="28" fill="url(#bg)"/>
  <rect width="1200" height="360" rx="28" fill="url(#grid)"/>
  <rect x="20" y="20" width="1160" height="320" rx="22" stroke="#8EEBFF" stroke-opacity="0.18"/>
  <rect x="34" y="34" width="1132" height="292" rx="18" stroke="#8EEBFF" stroke-opacity="0.08"/>

  <ellipse cx="274" cy="142" rx="220" ry="124" fill="url(#glowLeft)"/>
  <ellipse cx="942" cy="126" rx="224" ry="136" fill="url(#glowRight)"/>

  <path d="M822 84C885 102 929 132 959 170C994 214 1040 238 1102 244" stroke="url(#stroke)" stroke-width="2.2" stroke-linecap="round" stroke-opacity="0.72"/>
  <path d="M708 284C760 258 814 240 870 230C941 216 1004 182 1058 128" stroke="url(#stroke)" stroke-width="1.7" stroke-linecap="round" stroke-opacity="0.44"/>
  <path d="M744 66L822 84L864 60" stroke="#86F5FF" stroke-opacity="0.38" stroke-width="1.2"/>
  <path d="M1044 230L1102 244L1134 214" stroke="#86F5FF" stroke-opacity="0.38" stroke-width="1.2"/>

  <circle cx="822" cy="84" r="7" fill="#7DEBFF"/>
  <circle cx="822" cy="84" r="18" fill="#7DEBFF" fill-opacity="0.18" filter="url(#softBlur)"/>
  <circle cx="960" cy="170" r="8" fill="#68D9FF"/>
  <circle cx="1102" cy="244" r="7" fill="#60B8FF"/>
  <circle cx="1058" cy="128" r="5.5" fill="#8DF5FF"/>

  <path d="M110 88H190" stroke="#8DEBFF" stroke-opacity="0.62" stroke-width="1.5"/>
  <path d="M110 280H178" stroke="#8DEBFF" stroke-opacity="0.4" stroke-width="1.5"/>
  <path d="M1012 82H1090" stroke="#8DEBFF" stroke-opacity="0.4" stroke-width="1.5"/>
  <path d="M1006 282H1090" stroke="#8DEBFF" stroke-opacity="0.62" stroke-width="1.5"/>

  <text x="110" y="92" fill="#8DEBFF" fill-opacity="0.78" font-family="'JetBrains Mono', 'Fira Code', monospace" font-size="14" letter-spacing="2.8">SYSTEM PROFILE</text>
  <text x="110" y="212" fill="#F3FBFF" font-family="'JetBrains Mono', 'Fira Code', monospace" font-size="60" font-weight="700" letter-spacing="5">HEJIGUANG</text>
  <text x="114" y="248" fill="#9FD6E8" font-family="'JetBrains Mono', 'Fira Code', monospace" font-size="18" letter-spacing="3.4">JAVA BACKEND / AI WORKFLOWS</text>

  <text x="1006" y="82" fill="#9ADFFF" fill-opacity="0.48" font-family="'JetBrains Mono', 'Fira Code', monospace" font-size="12" letter-spacing="2">COLD STACK</text>
  <text x="1008" y="302" fill="#A7E8FF" fill-opacity="0.56" font-family="'JetBrains Mono', 'Fira Code', monospace" font-size="12" letter-spacing="2">BUILDING QUIET SYSTEMS</text>
</svg>
